<svg width="86" height="40" viewBox="0 0 86 40" fill="none" xmlns="http://www.w3.org/2000/svg">
<g clip-path="url(#clip0_71_743)">
<path d="M10.2561 19.5908C10.2331 16.7758 7.94555 14.4996 5.13048 14.4996C2.30968 14.4996 0.0220828 16.7758 0.00488281 19.5908V19.608C0.00488281 19.6138 0.00488281 19.6195 0.00488281 19.6252C0.00488281 19.631 0.00488281 19.6367 0.00488281 19.6424V34.1076C0.00488281 34.1134 0.00488281 34.1191 0.00488281 34.1248C0.00488281 36.9571 2.30395 39.2562 5.13622 39.2562C7.96848 39.2562 10.2676 36.9571 10.2676 34.1248L10.2561 19.5908Z" fill="white"/>
<path d="M5.13133 10.2627C7.96529 10.2627 10.2627 7.96529 10.2627 5.13133C10.2627 2.29738 7.96529 0 5.13133 0C2.29738 0 0 2.29738 0 5.13133C0 7.96529 2.29738 10.2627 5.13133 10.2627Z" fill="white"/>
<path d="M51.2961 26.8951C51.2961 26.8893 51.2961 26.8893 51.2961 26.8836C51.2961 26.8779 51.2961 26.8779 51.2961 26.8721V19.5908C51.2961 19.5621 51.2961 19.5392 51.2961 19.5105C51.2846 18.9429 51.1757 18.3753 50.9693 17.8307C50.9463 17.7733 50.9234 17.716 50.9005 17.6587C50.889 17.6357 50.8833 17.6128 50.8718 17.5899C50.8546 17.5497 50.8374 17.5153 50.8202 17.4752C50.803 17.4351 50.7801 17.3892 50.7571 17.3491C50.7457 17.3261 50.7342 17.3089 50.7227 17.286C50.6941 17.2287 50.6597 17.1713 50.631 17.114C50.6253 17.1025 50.6195 17.0968 50.6138 17.0853C50.5737 17.0165 50.5335 16.9477 50.4934 16.8789C50.4934 16.8789 50.4934 16.8789 50.4934 16.8732C50.4475 16.7987 50.3959 16.7299 50.3501 16.6553C50.2985 16.5865 50.2526 16.5177 50.1953 16.4547C50.1895 16.4489 50.1838 16.4432 50.1781 16.4375C50.1322 16.3801 50.0863 16.3228 50.0405 16.2712C50.0233 16.254 50.0118 16.2368 49.9946 16.2196C49.9545 16.1795 49.9201 16.1336 49.8799 16.0935C49.8513 16.0648 49.8226 16.0361 49.7997 16.0075C49.771 15.9788 49.7423 15.9501 49.7137 15.9272C49.6735 15.8871 49.6277 15.8469 49.5875 15.8125C49.5703 15.7953 49.5531 15.7839 49.5359 15.7667C49.4786 15.7208 49.427 15.6692 49.3697 15.6233C49.3639 15.6176 49.3582 15.6119 49.3525 15.6061C49.2837 15.5545 49.2206 15.5029 49.1518 15.4513C49.083 15.3997 49.0085 15.3539 48.9339 15.308C48.9339 15.308 48.9339 15.308 48.9282 15.308C48.8594 15.2679 48.7906 15.222 48.7218 15.1876C48.7103 15.1819 48.7046 15.1761 48.6931 15.1704C48.6358 15.136 48.5785 15.1073 48.5211 15.0787C48.4982 15.0672 48.481 15.0557 48.4581 15.0443C48.4179 15.0213 48.3721 15.0041 48.3319 14.9812C48.2918 14.964 48.2574 14.9468 48.2173 14.9296C48.1886 14.9181 48.1599 14.9067 48.137 14.9009C48.0797 14.878 48.0223 14.8551 47.965 14.8321C47.965 14.8321 47.965 14.8321 47.9593 14.8321C47.4146 14.6257 46.847 14.5225 46.2794 14.5053C46.2393 14.5053 46.1991 14.5053 46.159 14.5053C46.1189 14.5053 46.0787 14.5053 46.0386 14.5053C45.471 14.5168 44.9034 14.6257 44.3587 14.8321C44.3587 14.8321 44.3587 14.8321 44.353 14.8321C44.2957 14.8551 44.2383 14.878 44.181 14.9009C44.1581 14.9124 44.1351 14.9181 44.1065 14.9296C44.0663 14.9468 44.0319 14.964 43.9918 14.9812C43.9459 14.9984 43.9058 15.0213 43.8657 15.0443C43.8427 15.0557 43.8255 15.0672 43.8026 15.0787C43.7453 15.1073 43.6879 15.1417 43.6306 15.1704C43.6191 15.1761 43.6134 15.1819 43.6019 15.1876C43.5331 15.2277 43.4643 15.2679 43.3955 15.308C43.3955 15.308 43.3955 15.308 43.3898 15.308C43.3325 15.3424 43.2751 15.3825 43.2178 15.4227L35.8906 20.6056L28.5749 15.4227C26.2701 13.8173 23.0995 14.3677 21.4713 16.6611C20.8349 17.5555 20.531 18.576 20.5195 19.5965V26.8779C20.5195 26.8836 20.5195 26.8836 20.5195 26.8893C20.5195 26.8951 20.5195 26.8951 20.5195 26.9008V34.1305C20.5195 34.1363 20.5195 34.1363 20.5195 34.142C20.5195 36.9743 22.8186 39.2733 25.6509 39.2733C28.4831 39.2733 30.7822 36.9743 30.7822 34.142C30.7822 34.1363 30.7822 34.1363 30.7822 34.1305V29.5439L32.9494 31.0747C33.7865 31.6652 34.807 32.0149 35.9078 32.0149C37.0086 32.0149 38.0291 31.6652 38.8662 31.0747L41.0334 29.5439V34.1305C41.0334 34.1363 41.0334 34.1363 41.0334 34.142C41.0334 36.9743 43.3325 39.2733 46.1647 39.2733C48.997 39.2733 51.2961 36.9743 51.2961 34.142C51.2961 34.1363 51.2961 34.1363 51.2961 34.1305V26.8951Z" fill="white"/>
<path d="M86.0004 31.1607C85.9431 26.7919 82.3884 23.2716 78.0082 23.2716H77.1998H70.3484C69.9299 23.2716 69.5916 22.9334 69.5916 22.5148C69.5916 22.0963 69.9299 21.758 70.3484 21.758H73.6222H77.1998H80.8748C82.8758 21.758 84.4983 20.1355 84.4983 18.1346C84.4983 16.1336 82.8758 14.5111 80.8748 14.5111H69.2362C64.8559 14.5111 61.3012 18.0314 61.2439 22.4002C61.2439 22.4346 61.2439 22.4632 61.2439 22.4976C61.2439 22.5034 61.2439 22.5034 61.2439 22.5091C61.2439 22.5148 61.2439 22.5148 61.2439 22.5206C61.2439 22.555 61.2439 22.5836 61.2439 22.618C61.3012 26.9868 64.8559 30.5071 69.2362 30.5071H70.0446H76.8902C77.3087 30.5071 77.647 30.8454 77.647 31.2639C77.647 31.6824 77.3087 32.0207 76.8902 32.0207H70.0388H66.3638C64.3628 32.0207 62.7403 33.6432 62.7403 35.6442C62.7403 37.6451 64.3628 39.2676 66.3638 39.2676H77.9967C82.377 39.2676 85.9316 35.7474 85.989 31.3786C85.989 31.3442 85.989 31.304 85.989 31.2696C85.989 31.2352 86.0004 31.1951 86.0004 31.1607Z" fill="white"/>
</g>
<defs>
<clipPath id="clip0_71_743">
<rect width="86" height="39.2676" fill="white"/>
</clipPath>
</defs>
</svg>
